<svg width="70" height="58" viewBox="0 0 70 58" fill="none" xmlns="http://www.w3.org/2000/svg" xmlns:xlink="http://www.w3.org/1999/xlink">
<path d="M5.429,1.214C5.429,0.741 5.617,0.286 5.952,-0.049C6.286,-0.383 6.741,-0.572 7.214,-0.572L17.929,-0.572C18.402,-0.572 18.856,-0.383 19.191,-0.049C19.526,0.286 19.714,0.741 19.714,1.214C19.714,1.688 19.526,2.142 19.191,2.477C18.856,2.812 18.402,3 17.929,3L17.929,3C12.997,3 9,6.997 9,11.928L9,11.928C9,12.402 8.812,12.856 8.477,13.191C8.142,13.526 7.688,13.714 7.214,13.714C6.741,13.714 6.286,13.526 5.952,13.191C5.617,12.856 5.429,12.402 5.429,11.928L5.429,1.214ZM48.286,1.214C48.286,0.741 48.474,0.286 48.809,-0.049C49.144,-0.383 49.598,-0.572 50.071,-0.572L60.786,-0.572C61.259,-0.572 61.714,-0.383 62.048,-0.049C62.383,0.286 62.571,0.741 62.571,1.214L62.571,11.928C62.571,12.402 62.383,12.856 62.048,13.191C61.714,13.526 61.259,13.714 60.786,13.714C60.312,13.714 59.858,13.526 59.523,13.191C59.188,12.856 59,12.402 59,11.928L59,11.928C59,6.997 55.003,3 50.071,3L50.071,3C49.598,3 49.144,2.812 48.809,2.477C48.474,2.142 48.286,1.688 48.286,1.214ZM7.214,42.286C7.688,42.286 8.142,42.474 8.477,42.809C8.812,43.143 9,43.598 9,44.071L9,44.071C9,49.002 12.997,53 17.929,53L17.929,53C18.402,53 18.856,53.188 19.191,53.523C19.526,53.858 19.714,54.312 19.714,54.786C19.714,55.259 19.526,55.713 19.191,56.048C18.856,56.383 18.402,56.571 17.929,56.571L7.214,56.571C6.741,56.571 6.286,56.383 5.952,56.048C5.617,55.713 5.429,55.259 5.429,54.786L5.429,44.071C5.429,43.598 5.617,43.143 5.952,42.809C6.286,42.474 6.741,42.286 7.214,42.286ZM60.786,42.286C61.259,42.286 61.714,42.474 62.048,42.809C62.383,43.143 62.571,43.598 62.571,44.071L62.571,54.786C62.571,55.259 62.383,55.713 62.048,56.048C61.714,56.383 61.259,56.571 60.786,56.571L50.071,56.571C49.598,56.571 49.144,56.383 48.809,56.048C48.474,55.713 48.286,55.259 48.286,54.786C48.286,54.312 48.474,53.858 48.809,53.523C49.144,53.188 49.598,53 50.071,53L50.071,53C55.003,53 59,49.002 59,44.071L59,44.071C59,43.598 59.188,43.143 59.523,42.809C59.858,42.474 60.312,42.286 60.786,42.286ZM19.714,15.5C19.714,14.514 20.514,13.714 21.5,13.714L21.5,13.714C22.486,13.714 23.286,14.514 23.286,15.5L23.286,15.5C23.286,16.486 22.486,17.286 21.5,17.286L21.5,17.286C20.514,17.286 19.714,16.486 19.714,15.5L19.714,15.5Z" fill="#FFFFFF"/>
<path d="M30.429,6.571L12.571,6.571L12.571,24.428L30.429,24.428L30.429,6.571ZM16.143,10.143L26.857,10.143L26.857,20.857L16.143,20.857L16.143,10.143ZM23.286,38.714L19.714,38.714L19.714,42.285L23.286,42.285L23.286,38.714Z" fill="#000000"/>
<path d="M30.429,31.571L12.571,31.571L12.571,49.428L30.429,49.428L30.429,31.571ZM16.143,35.143L26.857,35.143L26.857,45.857L16.143,45.857L16.143,35.143ZM44.714,13.714L48.286,13.714L48.286,17.286L44.714,17.286L44.714,13.714Z" fill="#000000"/>
<path d="M37.571,6.571L55.429,6.571L55.429,24.428L37.571,24.428L37.571,6.571ZM41.143,10.143L41.143,20.857L51.857,20.857L51.857,10.143L41.143,10.143ZM34,28L34,35.143L37.571,35.143L37.571,38.714L34,38.714L34,42.285L41.143,42.285L41.143,35.143L44.714,35.143L44.714,42.285L48.286,42.285L48.286,38.714L55.429,38.714L55.429,35.143L44.714,35.143L44.714,28L34,28ZM41.143,35.143L37.571,35.143L37.571,31.571L41.143,31.571L41.143,35.143ZM55.429,42.285L51.857,42.285L51.857,45.857L44.714,45.857L44.714,49.428L55.429,49.428L55.429,42.285ZM41.143,49.428L41.143,45.857L34,45.857L34,49.428L41.143,49.428Z" fill="#000000"/>
<rect  x="48.286" y="28" width="7.143" height="3.571" fill="#000000"/>
<circle cx="21.46" cy="15.46" r="2.063" fill="#000000"/>
<path d="M6.48,21C2.614,21.033 -0.493,24.194 -0.46,28.06C-0.427,31.926 2.734,35.033 6.6,35L6.48,21ZM61.997,34.523C65.862,34.49 68.969,31.329 68.936,27.464C68.903,23.598 65.742,20.491 61.876,20.524L61.997,34.523ZM6.6,35L61.997,34.523L61.876,20.524L6.48,21L6.6,35Z" fill="#FFFFFF"/>
</svg>
