<svg width="498" height="490" viewBox="0 0 498 490" fill="none" xmlns="http://www.w3.org/2000/svg" xmlns:xlink="http://www.w3.org/1999/xlink">
<path d="M0,15.259C0,11.212 1.633,7.331 4.54,4.469C7.447,1.608 11.389,0 15.5,0L108.5,0C112.611,0 116.553,1.608 119.46,4.469C122.367,7.331 124,11.212 124,15.259C124,19.306 122.367,23.187 119.46,26.049C116.553,28.911 112.611,30.518 108.5,30.518L73,30.518C49.804,30.518 31,49.322 31,72.518L31,106.814C31,110.861 29.367,114.742 26.46,117.604C23.553,120.465 19.611,122.073 15.5,122.073C11.389,122.073 7.447,120.465 4.54,117.604C1.633,114.742 0,110.861 0,106.814L0,15.259ZM372,15.259C372,11.212 373.634,7.331 376.54,4.469C379.446,1.608 383.39,0 387.5,0L480.5,0C484.61,0 488.554,1.608 491.46,4.469C494.366,7.331 496,11.212 496,15.259L496,106.814C496,110.861 494.366,114.742 491.46,117.604C488.554,120.465 484.61,122.073 480.5,122.073C476.39,122.073 472.446,120.465 469.54,117.604C466.634,114.742 465,110.861 465,106.814L465,72.518C465,49.322 446.196,30.518 423,30.518L387.5,30.518C383.39,30.518 379.446,28.911 376.54,26.049C373.634,23.187 372,19.306 372,15.259ZM15.5,366.218C19.611,366.218 23.553,367.826 26.46,370.688C29.367,373.55 31,377.43 31,381.478L31,415.774C31,438.97 49.804,457.774 73,457.774L108.5,457.774C112.611,457.774 116.553,459.38 119.46,462.242C122.367,465.104 124,468.986 124,473.032C124,477.08 122.367,480.96 119.46,483.822C116.553,486.684 112.611,488.292 108.5,488.292L15.5,488.292C11.389,488.292 7.447,486.684 4.54,483.822C1.633,480.96 0,477.08 0,473.032L0,381.478C0,377.43 1.633,373.55 4.54,370.688C7.447,367.826 11.389,366.218 15.5,366.218ZM480.5,366.218C484.61,366.218 488.554,367.826 491.46,370.688C494.366,373.55 496,377.43 496,381.478L496,473.032C496,477.08 494.366,480.96 491.46,483.822C488.554,486.684 484.61,488.292 480.5,488.292L387.5,488.292C383.39,488.292 379.446,486.684 376.54,483.822C373.634,480.96 372,477.08 372,473.032C372,468.986 373.634,465.104 376.54,462.242C379.446,459.38 383.39,457.774 387.5,457.774L423,457.774C446.196,457.774 465,438.97 465,415.774L465,381.478C465,377.43 466.634,373.55 469.54,370.688C472.446,367.826 476.39,366.218 480.5,366.218ZM124,137.332C124,128.905 130.832,122.073 139.259,122.073L139.741,122.073C148.168,122.073 155,128.905 155,137.332L155,137.332C155,145.759 148.168,152.591 139.741,152.591L139.259,152.591C130.832,152.591 124,145.759 124,137.332L124,137.332Z" fill="#FDB623"/>
<path d="M9.585,237.146C5.719,237.179 2.612,240.339 2.645,244.205C2.677,248.071 5.838,251.178 9.704,251.146L9.585,237.146ZM490.548,247.076C494.414,247.044 497.52,243.883 497.488,240.017C497.456,236.152 494.296,233.044 490.43,233.077L490.548,247.076ZM9.704,251.146L490.548,247.076L490.43,233.077L9.585,237.146L9.704,251.146Z" fill="#FDB623"/>
</svg>
