<svg width="552" height="72" viewBox="0 0 552 72" fill="none" xmlns="http://www.w3.org/2000/svg" xmlns:xlink="http://www.w3.org/1999/xlink">
<g filter="url(#filter60_130)">
<path d="M0,12C0,5.373 5.373,0 12,0L540,0C546.628,0 552,5.373 552,12L552,60C552,66.627 546.628,72 540,72L12,72C5.373,72 0,66.627 0,60L0,12Z" fill="#000000" fill-opacity="0.4"/>
</g>
<path d="M77.1,19.333C77.1,19.039 76.98,18.756 76.766,18.548C76.552,18.339 76.262,18.222 75.959,18.222L50.86,18.222C50.558,18.222 50.267,18.339 50.053,18.548C49.839,18.756 49.719,19.039 49.719,19.333L49.719,20.444L77.1,20.444L77.1,19.333Z" fill="#D9D9D9"/>
<path d="M79.359,23.778C79.359,23.483 79.239,23.201 79.025,22.992C78.811,22.784 78.521,22.667 78.218,22.667L48.556,22.667C48.253,22.667 47.963,22.784 47.749,22.992C47.535,23.201 47.415,23.483 47.415,23.778L47.415,24.889L79.359,24.889L79.359,23.778Z" fill="#D9D9D9"/>
<path d="M79.359,27.111L47.141,27.111C46.572,27.111 46.026,27.331 45.624,27.723C45.222,28.115 44.996,28.646 44.996,29.2L44.996,49.467C44.996,50.021 45.222,50.552 45.624,50.944C46.026,51.335 46.572,51.555 47.141,51.555L79.359,51.555C79.928,51.555 80.473,51.335 80.876,50.944C81.278,50.552 81.504,50.021 81.504,49.467L81.504,29.2C81.504,28.646 81.278,28.115 80.876,27.723C80.473,27.331 79.928,27.111 79.359,27.111L79.359,27.111ZM52.48,30.944C53.157,30.944 53.819,31.14 54.382,31.506C54.944,31.872 55.383,32.393 55.642,33.002C55.901,33.611 55.969,34.281 55.837,34.928C55.705,35.575 55.379,36.169 54.9,36.635C54.422,37.101 53.812,37.418 53.148,37.547C52.484,37.676 51.796,37.61 51.17,37.357C50.545,37.105 50.01,36.678 49.634,36.13C49.258,35.581 49.057,34.937 49.057,34.278C49.057,33.394 49.418,32.546 50.06,31.921C50.702,31.296 51.572,30.944 52.48,30.944L52.48,30.944ZM76.94,47.111L49.559,47.111L58.07,38.811C58.222,38.665 58.427,38.582 58.641,38.582C58.854,38.582 59.06,38.665 59.211,38.811L63.41,42.9L69.194,37.111C69.346,36.965 69.551,36.882 69.764,36.882C69.978,36.882 70.183,36.965 70.335,37.111L76.94,43.544L76.94,47.111Z" fill="#D9D9D9"/>
<path d="M275.281,32.364L287.5,32.364L271.79,56L271.79,39.636L259.572,39.636L275.281,16L275.281,32.364Z" fill="#D9D9D9"/>
<path d="M484.523,33.5L480.245,37.667L482.042,39.417L483.154,38.333C482.983,39.806 482.341,41.035 481.229,42.022C480.117,43.007 478.79,43.5 477.25,43.5C476.851,43.5 476.48,43.466 476.138,43.397C475.795,43.327 475.453,43.222 475.111,43.083L473.228,44.917C473.827,45.25 474.462,45.514 475.133,45.708C475.803,45.903 476.508,46 477.25,46C479.532,46 481.478,45.25 483.089,43.75C484.701,42.25 485.578,40.417 485.721,38.25L487.005,39.417L488.801,37.667L484.523,33.5ZM469.977,41.833L474.255,37.667L472.458,35.917L471.346,37C471.517,35.528 472.159,34.298 473.271,33.312C474.384,32.326 475.71,31.833 477.25,31.833C477.649,31.833 478.02,31.868 478.362,31.937C478.705,32.007 479.047,32.111 479.389,32.25L481.272,30.417C480.673,30.083 480.038,29.819 479.369,29.625C478.698,29.431 477.992,29.333 477.25,29.333C474.968,29.333 473.022,30.083 471.411,31.583C469.799,33.083 468.922,34.917 468.779,37.083L467.496,35.917L465.699,37.667L469.977,41.833ZM463.56,51C462.618,51 461.813,50.674 461.143,50.022C460.472,49.368 460.137,48.583 460.137,47.667L460.137,27.667C460.137,26.75 460.472,25.966 461.143,25.313C461.813,24.66 462.618,24.333 463.56,24.333L468.95,24.333L472.116,21L482.384,21L485.55,24.333L490.941,24.333C491.882,24.333 492.688,24.66 493.359,25.313C494.028,25.966 494.363,26.75 494.363,27.667L494.363,47.667C494.363,48.583 494.028,49.368 493.359,50.022C492.688,50.674 491.882,51 490.941,51L463.56,51Z" fill="#D9D9D9"/>
<defs>
<filter id="filter60_130" x="-30" y="-30" width="336" height="96" filterUnits="userSpaceOnUse" color-interpolation-filters="sRGB">
<feFlood flood-opacity="0" result="BackgroundImageFix"/>
<feColorMatrix in="SourceAlpha" type="matrix" values="0 0 0 0 0 0 0 0 0 0 0 0 0 0 0 0 0 0 127 0" result="hardAlpha"/>
<feMorphology radius="0" operator="dilate" in="SourceAlpha" result="0dropshadow"/>
<feOffset dx="0" dy="0"/>
<feGaussianBlur stdDeviation="15"/>
<feComposite in2="hardAlpha" operator="out"/>
<feColorMatrix type="matrix" values="0 0 0 0 0 0 0 0 0 0 0 0 0 0 0 0 0 0 0.6 0"/>
<feBlend mode="normal" in2="BackgroundImageFix" result="0dropshadow"/>
<feBlend mode="normal" in="SourceGraphic" in2="0dropshadow" result="shape"/>
</filter>
</defs>
</svg>
