<svg width="54" height="48" viewBox="0 0 54 48" fill="none" xmlns="http://www.w3.org/2000/svg" xmlns:xlink="http://www.w3.org/1999/xlink">
<path d="M14.853,7.037C16.53,5.599 16.724,3.074 15.287,1.397C13.849,-0.28 11.324,-0.475 9.647,0.963L14.853,7.037ZM3.5,11.5L0.897,8.463C0.051,9.188 -0.454,10.233 -0.497,11.346C-0.54,12.46 -0.116,13.541 0.672,14.328L3.5,11.5ZM9.421,23.078C10.983,24.641 13.516,24.641 15.078,23.078C16.64,21.516 16.64,18.984 15.078,17.422L9.421,23.078ZM9.647,0.963L0.897,8.463L6.103,14.537L14.853,7.037L9.647,0.963ZM0.672,14.328L9.421,23.078L15.078,17.422L6.328,8.672L0.672,14.328Z" fill="#FFFFFF"/>
<path d="M3.5,7.5C1.291,7.5 -0.5,9.291 -0.5,11.5C-0.5,13.709 1.291,15.5 3.5,15.5L3.5,7.5ZM48.488,27.125L52.485,26.969L52.485,26.969L48.488,27.125ZM10.998,40C8.789,40 6.998,41.791 6.998,44C6.998,46.209 8.789,48 10.998,48L10.998,40ZM3.5,15.5L32.242,15.5L32.242,7.5L3.5,7.5L3.5,15.5ZM32.242,15.5C38.698,15.5 44.239,20.828 44.491,27.281L52.485,26.969C52.066,16.223 42.994,7.5 32.242,7.5L32.242,15.5ZM44.491,27.281C44.757,34.094 39.069,40 32.242,40L32.242,48C43.599,48 52.928,38.33 52.485,26.969L44.491,27.281ZM32.242,40L10.998,40L10.998,48L32.242,48L32.242,40Z" fill="#FFFFFF"/>
</svg>
