<svg width="44" height="46" viewBox="0 0 44 46" fill="none" xmlns="http://www.w3.org/2000/svg" xmlns:xlink="http://www.w3.org/1999/xlink">
<path d="M36.538,7.463C34.233,5.137 31.435,3.358 28.35,2.259C25.266,1.159 21.974,0.767 18.718,1.11C8.625,2.128 0.32,10.323 -0.808,20.415C-2.32,33.753 7.993,45 21,45C25.153,45 29.22,43.822 32.73,41.602C36.24,39.382 39.048,36.212 40.828,32.46C41.708,30.618 40.388,28.5 38.353,28.5C37.335,28.5 36.373,29.05 35.933,29.958C34.336,33.392 31.605,36.172 28.199,37.83C24.794,39.488 20.921,39.922 17.233,39.06C11.128,37.713 6.205,32.735 4.913,26.63C4.369,24.216 4.375,21.711 4.931,19.3C5.486,16.889 6.577,14.634 8.121,12.701C9.666,10.768 11.625,9.207 13.855,8.134C16.084,7.061 18.526,6.502 21,6.5C25.565,6.5 29.635,8.398 32.605,11.395L28.453,15.548C26.72,17.28 27.93,20.25 30.378,20.25L40.25,20.25C41.763,20.25 43,19.013 43,17.5L43,7.628C43,5.18 40.03,3.943 38.298,5.675L36.538,7.463Z" fill="#FFFFFF"/>
</svg>
