<svg width="18" height="18" viewBox="0 0 18 18" fill="none" xmlns="http://www.w3.org/2000/svg" xmlns:xlink="http://www.w3.org/1999/xlink">
<path d="M0.75,13.813L0.75,17.25L4.188,17.25L14.326,7.112L10.888,3.674L0.75,13.813ZM16.984,4.453C17.069,4.369 17.137,4.268 17.183,4.157C17.229,4.046 17.252,3.927 17.252,3.807C17.252,3.687 17.229,3.568 17.183,3.457C17.137,3.346 17.069,3.246 16.984,3.161L14.839,1.016C14.754,0.931 14.654,0.863 14.543,0.817C14.432,0.771 14.313,0.748 14.193,0.748C14.073,0.748 13.954,0.771 13.843,0.817C13.732,0.863 13.631,0.931 13.547,1.016L11.869,2.693L15.307,6.131L16.984,4.453Z" fill="#7B7B7F"/>
</svg>
